<?xml version="1.0" standalone="no"?><!DOCTYPE svg PUBLIC "-//W3C//DTD SVG 1.1//EN" "http://www.w3.org/Graphics/SVG/1.1/DTD/svg11.dtd"><svg t="1694076705582" class="icon" viewBox="0 0 1024 1024" version="1.1" xmlns="http://www.w3.org/2000/svg" p-id="1492" xmlns:xlink="http://www.w3.org/1999/xlink" width="200" height="200"><path d="M160 288h128a48 48 0 1 0 0-96h-128a48 48 0 1 0 0 96z m0 272h128a48 48 0 1 0 0-96h-128a48 48 0 1 0 0 96zM864 48h-48v928h48a48 48 0 0 0 48-48V96a48 48 0 0 0-48-48zM208 96v48h80a96 96 0 1 1 0 192h-80v80h80a96 96 0 1 1 0 192h-80v80h80a96 96 0 1 1 0 192h-80v48a48 48 0 0 0 48 48h512V48H256a48 48 0 0 0-48 48z m128 688a48 48 0 0 0-48-48h-128a48 48 0 1 0 0 96h128a48 48 0 0 0 48-48z" fill="" p-id="1493"></path></svg>