<?xml version="1.0" standalone="no"?><!DOCTYPE svg PUBLIC "-//W3C//DTD SVG 1.1//EN" "http://www.w3.org/Graphics/SVG/1.1/DTD/svg11.dtd"><svg t="1694135514451" class="icon" viewBox="0 0 1570 1024" version="1.1" xmlns="http://www.w3.org/2000/svg" p-id="4015" xmlns:xlink="http://www.w3.org/1999/xlink" width="306.640625" height="200"><path d="M1283.072 430.933333c0-4.266667 0.7168-8.533333 0.7168-12.8C1283.7888 187.050667 1102.2336 0 878.2848 0c-161.553067 0-300.373333 97.416533-365.568 238.250667a205.243733 205.243733 0 0 0-93.866667-23.1424c-103.424 0-189.6448 77.858133-206.097066 179.541333C88.6784 438.0672 0 558.626133 0 700.450133 0 878.933333 140.526933 1024 313.685333 1024h359.2192v-284.433067h-168.925866L785.066667 441.924267l281.088 297.301333h-168.96v284.433067h386.594133c158.4128 0 286.344533-133.358933 286.344533-296.5504 0-163.191467-128.6144-295.8336-287.061333-296.174934z" fill="#ffffff" p-id="4016"></path></svg>